# xmcd CD database file
#
# Track frame offsets:
#	150
#	15501
#	29453
#	44886
#	62187
#	79475
#	92406
#	104952
#	118286
#	131077
#	143664
#	156934
#	178357
#	195822
#
# Disc length: 2900 seconds
#
# Revision: 0
# Processed by: cddbd v1.5.2PL0 Copyright (c) Steve Scherf et al.
# Submitted via: CDex 1.51
#
DISCID=cf0b520e
DTITLE=Handsome Hank and his Band - Roll on down the Line
DYEAR=2015
DGENRE=Country
TTITLE0=Roll on down the Line
TTITLE1=Kiss in Mexico
TTITLE2=Grocery Store
TTITLE3=When the Days are Shady
TTITLE4=This Good Old Heart of Mine
TTITLE5=Goldrush
TTITLE6=Green Green River
TTITLE7=Pain in my Heart (and a Pain in the Ass)
TTITLE8=Shoot my Baby down
TTITLE9=Northern Sky
TTITLE10=Mayhem
TTITLE11=Polaroid Paranoid
TTITLE12=Julie
TTITLE13=Sparkling Star
EXTD=YEAR: 2015
EXTT0=
EXTT1=
EXTT2=
EXTT3=
EXTT4=
EXTT5=
EXTT6=
EXTT7=
EXTT8=
EXTT9=
EXTT10=
EXTT11=
EXTT12=
EXTT13=
PLAYORDER=
